<svg id="Layer_1" data-name="Layer 1" xmlns="http://www.w3.org/2000/svg" viewBox="0 0 221.3 99.71"><defs><style>.cls-1{fill:#fff;}</style></defs><path class="cls-1" d="M78.16.15h-56A21.88,21.88,0,0,0,.32,22V78A21.88,21.88,0,0,0,22.2,99.85h56A21.87,21.87,0,0,0,100,78V22A21.87,21.87,0,0,0,78.16.15Zm5.78,65.77A17.86,17.86,0,0,1,66.1,83.76H34.26A17.86,17.86,0,0,1,16.41,65.92V34.08A17.86,17.86,0,0,1,34.26,16.24H66.1A17.86,17.86,0,0,1,83.94,34.08Z" transform="translate(-0.32 -0.15)"/><path class="cls-1" d="M50.18,39.72A10.28,10.28,0,1,0,60.46,50,10.29,10.29,0,0,0,50.18,39.72Z" transform="translate(-0.32 -0.15)"/><path class="cls-1" d="M66.1,22.67H34.26A11.42,11.42,0,0,0,22.85,34.08V65.92A11.42,11.42,0,0,0,34.26,77.33H66.1A11.42,11.42,0,0,0,77.51,65.92V34.08A11.42,11.42,0,0,0,66.1,22.67ZM50.18,66.72a16.72,16.72,0,1,1,0-33.43h0a16.72,16.72,0,0,1,0,33.43Zm18.6-30.49A4.25,4.25,0,1,1,73,32,4.25,4.25,0,0,1,68.78,36.23Z" transform="translate(-0.32 -0.15)"/><path class="cls-1" d="M199.75.15h-56A21.87,21.87,0,0,0,121.92,22V78a21.87,21.87,0,0,0,21.87,21.87h31.42V61.35H162.37v-15h12.84V33s1-17.42,18.11-17.42h12.37V29.41h-9.37a5.79,5.79,0,0,0-5.79,5.79v11h14.71l-1.84,15H190.57V99.85h9.18A21.87,21.87,0,0,0,221.62,78V22A21.87,21.87,0,0,0,199.75.15Z" transform="translate(-0.32 -0.15)"/></svg>