<svg id="Layer_1" data-name="Layer 1" xmlns="http://www.w3.org/2000/svg" viewBox="0 0 998.51 664.67"><defs><style>.cls-1{fill:#fff;}</style></defs><path class="cls-1" d="M770.9,386.12c-.5,1.57.31,2.69.7,3.84a103.1,103.1,0,0,1,4.27,14.91c.71,3.85,1.21,7.73,1.78,11.6.75,5.13,1.36,10.28,2.22,15.38,1.07,6.34,3.85,12,7.25,17.42a62.94,62.94,0,0,0,19.42,19.36,43.47,43.47,0,0,1,4.79,3.38,14.53,14.53,0,0,1,5.14,11.23,13.6,13.6,0,0,1-13.06,13.45,32.9,32.9,0,0,1-7.2-.8c-5.66-1-11.33-2-17-2.76a89.89,89.89,0,0,0-34.95,2c-7.14,1.8-14.16,4-21.13,6.39a166.4,166.4,0,0,1-20.55,5.94,120.06,120.06,0,0,1-34.36,2.06c-4.36-.38-8.7-.94-13-1.73-2-.36-2.06.22-1.74,1.68.75,3.49,1.61,7,2.19,10.47.84,5,1.51,10,2.18,15a20.83,20.83,0,0,1-.2,5.84,7.37,7.37,0,0,1-7.09,5.92,21.54,21.54,0,0,1-4.8-.48,41,41,0,0,1-9.34-3.53c-5.22-2.67-10.43-5.38-15.66-8-3.7-1.88-7.41-3.72-11.12-5.56-1.13-.57-2.28-1.12-3.45-1.58-1.49-.58-3.08-1.82-4.52-1.33-1.6.55-1.42,2.7-1.89,4.18a97,97,0,0,1-19.25,34c-7.21,8.38-15,16.29-22.53,24.34-4.11,4.36-8.19,8.74-12.33,13.07a154.14,154.14,0,0,0-29.3,43.68c-1.93,4.3-3.81,8.63-5.72,12.94-.32.74-.62,1.49-1,2.21-2.24,4.59-5.89,7-11,6.9s-9-2.45-11.23-7.21c-1-2.19-1.88-4.45-2.85-6.67-2.95-6.75-6.1-13.4-9.58-19.9a139.33,139.33,0,0,0-20.18-28.35c-6.84-7.48-13.87-14.79-20.79-22.19-5.19-5.56-10.39-11.11-15.48-16.74A97.21,97.21,0,0,1,397,528.72c-1.1-3.69-1.27-2.91-4-1.93a75.62,75.62,0,0,0-8.18,3.66c-7.51,3.78-15,7.65-22.44,11.48a45.84,45.84,0,0,1-10.89,4.3,24.67,24.67,0,0,1-4.1.49,7.39,7.39,0,0,1-8-7.3,40.06,40.06,0,0,1,.31-7.58c1.11-7.51,2.13-15,4-22.42.11-.44.12-.91.19-1.38-1.15-.74-2.29-.2-3.37,0q-5.28.89-10.61,1.38A119.31,119.31,0,0,1,281.84,504c-7.88-2.54-15.67-5.38-23.66-7.58a119,119,0,0,0-21.34-4,96.74,96.74,0,0,0-17.93.6c-7.11.7-14.09,2.23-21.13,3.38a17.87,17.87,0,0,1-5.16.17c-9.76-1.26-15.17-11.83-9.81-21a15.67,15.67,0,0,1,5.06-5.12c1.63-1.08,3.29-2.12,4.9-3.24a62.11,62.11,0,0,0,21-24.68,44.81,44.81,0,0,0,3.95-13.17c.85-6,1.69-12.08,2.47-18.13a100.34,100.34,0,0,1,5-20.07c.52-1.5,1.32-2.94,1.33-4.59-1.58-1-3.33-.44-5-.44q-108.16-.06-216.33,0c-1.15,0-2.31,0-3.46-.07a.88.88,0,0,1-.9-.85c-.07-1-.1-2.07-.1-3.1V226.9c0-.8,0-1.61,0-2.42,0-2.63,0-2.63,2.69-2.66H5.86q90,0,180,0c5.41,0,4.09.77,5.92-4.21A327.58,327.58,0,0,1,359.11,34.21,321.31,321.31,0,0,1,437.34,8.72,340.09,340.09,0,0,1,473.6,3.9,325.67,325.67,0,0,1,631,30.75q99,44.45,152.8,138.82a312.08,312.08,0,0,1,22.43,48.89c1.39,3.87.57,3.35,4.82,3.35H994.85l3.11,0a1.18,1.18,0,0,1,1.26,1.3c0,.92,0,1.85,0,2.77V382.08c0,.8,0,1.61,0,2.42-.06,1.27-.34,1.52-1.71,1.57-1,0-2.08,0-3.11,0H775C773.59,386.08,772.22,386.11,770.9,386.12Zm-14.34-9.33c1.4,0,2.62-.1,3.84-.1H985.74c4.83,0,4.2.6,4.2-4.21q0-68.25,0-136.49c0-1.48.6-3.28-.37-4.35-1.11-1.22-3-.51-4.59-.51q-90.39,0-180.76,0c-4,0-3.35.23-4.54-3.22C780.49,172,748.5,124.77,703.25,86.78,648.69,41,585.58,16.43,514.49,12.55a302.33,302.33,0,0,0-52.09,1.7,323.11,323.11,0,0,0-34.7,5.9,311.15,311.15,0,0,0-109,48.05q-85.87,59.91-120.42,158.86c-1.65,4.74-.58,4-5.69,4h-178c-5.15,0-4.6-.53-4.6,4.62Q10,304,10,372.21c0,.93,0,1.85,0,2.77,0,1.41.26,1.64,1.56,1.68s2.31,0,3.46,0H240.19a1.68,1.68,0,0,1-.1,1.85c-1.05,2.17-2.13,4.34-3.12,6.54-4.05,9-7,18.26-7.77,28.14a109,109,0,0,1-1.72,13.35A86.45,86.45,0,0,1,221.55,446a68,68,0,0,1-23.26,27.29c-1.61,1.12-3.26,2.17-4.88,3.28a7.51,7.51,0,0,0-2.88,3.35,4.21,4.21,0,0,0,4,6,10.67,10.67,0,0,0,2.36-.44,90.22,90.22,0,0,1,9.49-1.82c5.7-.85,11.44-1.33,17.18-1.74a95.92,95.92,0,0,1,30.52,2.39,152.53,152.53,0,0,1,17.31,5.86,140.13,140.13,0,0,0,16.05,5.29A134,134,0,0,0,321.4,499a95.68,95.68,0,0,0,27.57-4c1.32-.41,2.66-.73,4-1,1.18-.27,1.54,0,1.44,1.16-.34,3.9-.67,7.8-1.1,11.69a106.84,106.84,0,0,1-5.14,23.56,11.23,11.23,0,0,0-.68,2.65,2.94,2.94,0,0,0,2.92,3.17,4.66,4.66,0,0,0,2.35-.49c1.46-.68,2.94-1.31,4.36-2.08q8.81-4.74,17.59-9.56A131.07,131.07,0,0,1,400,513c1.07-.32,2.18-.55,3.25-.83a9,9,0,0,1,1,3.43A85.34,85.34,0,0,0,419,549.94a160.22,160.22,0,0,0,21.12,24.15c3.71,3.46,7.48,6.84,11.14,10.36a151.48,151.48,0,0,1,23.93,28.95,224.76,224.76,0,0,1,18.27,36.35,16.76,16.76,0,0,0,1.25,2.84c2,3.28,5.86,3.24,7.8-.07a18,18,0,0,0,1.24-2.84c2.29-6,5-11.88,7.8-17.68,9.15-18.85,21.1-35.63,36.65-49.77,2.64-2.4,5.26-4.83,7.88-7.25a158.62,158.62,0,0,0,23.09-26.54,83,83,0,0,0,11.5-23.84,103,103,0,0,0,2.49-10.41c.36-2,.51-2.11,2.43-1.58a111.36,111.36,0,0,1,17.74,6.72c6.25,2.95,12.22,6.43,18.28,9.74,3.73,2,7.54,4,11.33,5.9a11,11,0,0,0,2.9,1.08,3.21,3.21,0,0,0,3.83-3.94,9.73,9.73,0,0,0-.54-1.63c-3.91-10.94-5.44-22.33-6.25-33.84a4.85,4.85,0,0,1,.22-2.8c2-.06,3.76.72,5.6,1.26A93.89,93.89,0,0,0,675,499a171.23,171.23,0,0,0,17.25-.61,117.46,117.46,0,0,0,22-4.18c6.3-1.87,12.37-4.36,18.5-6.67a93.32,93.32,0,0,1,34.17-5.92c4.27.05,8.52.41,12.75.8,7.11.66,14.23,1.27,21.14,3.21a7.46,7.46,0,0,0,2,.3,4.07,4.07,0,0,0,4.15-4.16,5.4,5.4,0,0,0-1.51-3.75,14.3,14.3,0,0,0-3-2.3,87.36,87.36,0,0,1-8.91-6.53,64.62,64.62,0,0,1-19-25.89A96.29,96.29,0,0,1,768.06,414a72.64,72.64,0,0,0-1.86-11.92,105.39,105.39,0,0,0-8.11-21.61A12,12,0,0,1,756.56,376.79Z" transform="translate(-0.75 -2.88)"/><path class="cls-1" d="M643.73,230.57c-.48.43-1.07.3-1.62.3H353.83a1.48,1.48,0,0,1,.32-1.77c1.4-2,2.88-3.89,4.23-5.89a3.16,3.16,0,0,1,3.2-1.53c.92.08,1.84,0,2.77,0H482.49c4.74,0,4.21.55,4.21-4.24q0-29.88,0-59.76c0-4.06-.42-3.65,3.62-3.92a178.06,178.06,0,0,1,19.33.15c.57,0,1.15.06,1.72.11a.9.9,0,0,1,.87.89c0,1,.08,2.07.08,3.11q0,29.7,0,59.4c0,4.76-.51,4.26,4.21,4.26q58.74,0,117.46,0c4.45,0,3.36-.64,6.17,3.12,1.1,1.48,2.15,3,3.2,4.5C643.63,229.69,644,230.06,643.73,230.57Z" transform="translate(-0.75 -2.88)"/><path class="cls-1" d="M498.84,628.44a89.05,89.05,0,0,1,3.27-12A96.79,96.79,0,0,1,517.84,589a148,148,0,0,1,21.37-21.54c13.93-11.55,24.06-25.9,31.24-42.41a60.53,60.53,0,0,0,4.87-17.56c.19-1.7.48-1.92,2.25-1.75A54.13,54.13,0,0,1,588,508a1.47,1.47,0,0,1,1.06,1.58,36.48,36.48,0,0,1-1.2,8.18c-2.07,8.73-6,16.64-10.71,24.19a155.09,155.09,0,0,1-22.7,28.19c-.82.81-1.65,1.61-2.53,2.34-15.45,12.76-27.76,28.16-38,45.27a198.58,198.58,0,0,0-14,28.06c-.22.54-.43,1.07-.68,1.59a3.49,3.49,0,0,1-.42.53c-.87-.55-1-1.53-1.31-2.37a203.68,203.68,0,0,0-28.37-48.79,159.39,159.39,0,0,0-22.74-23.57,120.09,120.09,0,0,1-15.6-16.59,129.73,129.73,0,0,1-15.66-23.93,64.88,64.88,0,0,1-6.15-17.88c-.29-1.7-.39-3.43-.55-5.15a1.4,1.4,0,0,1,1-1.62,50.23,50.23,0,0,1,11.11-2.37,1.19,1.19,0,0,1,1.43,1.11c.26,1.59.49,3.18.8,4.76a69.34,69.34,0,0,0,4.9,15.07,116.54,116.54,0,0,0,24.14,35.07c1.54,1.55,3.19,3,4.87,4.39a161.8,161.8,0,0,1,22.51,22.36c7.73,9.59,13.91,20,17.43,31.91.52,1.76.89,3.57,1.35,5.35A6.12,6.12,0,0,0,498.84,628.44Z" transform="translate(-0.75 -2.88)"/><path class="cls-1" d="M267.67,376.94c-.25,1.25-1.21,1.8-1.9,2.54a132.19,132.19,0,0,0-14.7,18.71,59,59,0,0,0-8.4,23.55c-.66,4.43-1.19,8.89-1.91,13.32a55.49,55.49,0,0,1-14.33,29c-.7.76-1.37,1.55-2,2.33-.06.06,0,.2,0,.33.49.69,1.23.38,1.85.36,4.95-.13,9.88-.37,14.84-.13a59.89,59.89,0,0,1,19.84,4.14c5.64,2.29,11.29,4.6,17,6.82a104.35,104.35,0,0,0,18.5,5.5,58.52,58.52,0,0,0,17.87.59c12.91-1.55,25.14-5.5,37.15-10.25l3.47-1.39a3.42,3.42,0,0,1,.92,2.61c.32,2.63.55,5.27.73,7.91.15,2.31,0,2.48-2.07,3.38a77.52,77.52,0,0,1-13.13,4.21,115.18,115.18,0,0,1-34.64,2.48,124.12,124.12,0,0,1-20.12-3,127,127,0,0,1-16.37-5.42A132.3,132.3,0,0,0,253.85,479a85.17,85.17,0,0,0-23.64-2.32,157.22,157.22,0,0,0-30.11,3.64,10,10,0,0,1-1.34.18.33.33,0,0,1-.28-.17.94.94,0,0,1-.11-.62c.33-.79,1.11-1.14,1.75-1.62a97.23,97.23,0,0,0,15.58-14.63,84.11,84.11,0,0,0,9.36-13.64c3.19-5.81,5-12.12,6.49-18.51a103,103,0,0,0,2.21-15.36,97,97,0,0,1,11.67-36.56,63.69,63.69,0,0,1,4.5-6.54,2.75,2.75,0,0,1,3-1.14,56.93,56.93,0,0,1,10.25,3A14.19,14.19,0,0,1,267.67,376.94Z" transform="translate(-0.75 -2.88)"/><path class="cls-1" d="M642.09,472.19c1.53.58,2.69,1,3.83,1.46a166.07,166.07,0,0,0,28.63,8.94,87,87,0,0,0,12.64,1.76A65.78,65.78,0,0,0,710,481.2c6.85-2.06,13.43-4.81,20-7.5,2.77-1.13,5.56-2.21,8.35-3.29A55.79,55.79,0,0,1,755.57,467c4.73-.26,9.44-.16,14.16,0,1.11,0,2.22,0,3.35,0,.07-1.15-.74-1.55-1.24-2.1a59.32,59.32,0,0,1-11-16.2,60.48,60.48,0,0,1-4.63-16.91c-.68-5.37-1.43-10.72-2.54-16a53.49,53.49,0,0,0-7-17.17,122.36,122.36,0,0,0-15.08-19.3c-.68-.74-1.66-1.28-1.84-2.53a57.86,57.86,0,0,1,14.6-5.07,2.93,2.93,0,0,1,3.3,1.17,65.33,65.33,0,0,1,5.33,8.06,96.15,96.15,0,0,1,9.51,26.56,88.89,88.89,0,0,1,1.48,10.93,89.87,89.87,0,0,0,6.16,26.47,69.05,69.05,0,0,0,11.1,17.82,94.39,94.39,0,0,0,15.45,14.78c.82.63,1.6,1.3,2.37,2a.67.67,0,0,1,.07.61c-.07.18-.3.42-.47.42a4.08,4.08,0,0,1-1-.19,145.18,145.18,0,0,0-20.12-3,148.11,148.11,0,0,0-15.18-.66,84.68,84.68,0,0,0-30.3,6.07,187,187,0,0,1-18.53,6.57,109.42,109.42,0,0,1-20.73,3.51c-4,.29-8.05.55-12.08.5a104.45,104.45,0,0,1-33.58-5.51c-1.74-.6-3.43-1.35-5.13-2a1.39,1.39,0,0,1-1-1.31A92,92,0,0,1,642.09,472.19Z" transform="translate(-0.75 -2.88)"/><path class="cls-1" d="M354.13,529.59c.25-1.29.47-2.64.77-4a175.31,175.31,0,0,0,4.47-48,123,123,0,0,0-1.45-14.08,67.19,67.19,0,0,1,3.35-34A66.41,66.41,0,0,1,371,411.4a5.8,5.8,0,0,1,5.23-2.58c2.76.09,5.53-.14,8.22.71.41.14.9.15,1.24.78-.1,1.1-1.08,1.83-1.74,2.72a76.19,76.19,0,0,0-15.27,54.87,136.34,136.34,0,0,1-.05,25.87,75.35,75.35,0,0,1-5.47,22.73.89.89,0,0,0,.15,1.07,8.79,8.79,0,0,0,3.08-1.91c3.82-2.78,7.68-5.5,11.7-8a104.33,104.33,0,0,1,29-12.64c4.7-1.19,9.52-1.61,14.29-2.37,9.59-1.54,18.47-4.79,26.15-10.91,8-6.39,13.11-14.73,16.21-24.37A78.56,78.56,0,0,0,467.27,436c0-1.15.05-2.3.11-3.45,0-.45.4-.49.73-.42a1.45,1.45,0,0,1,.59.33,30.79,30.79,0,0,1,5.94,6.69,6.17,6.17,0,0,1,1.08,3.22c.56,15.21-3.3,29-13.38,40.64-6.15,7.14-13.95,11.94-22.71,15.25a86.17,86.17,0,0,1-20.78,4.85A99.82,99.82,0,0,0,395.47,509,208.57,208.57,0,0,0,359.4,527c-1.18.72-2.34,1.46-3.53,2.17A1.79,1.79,0,0,1,354.13,529.59Z" transform="translate(-0.75 -2.88)"/><path class="cls-1" d="M634.1,516.65c-.74-2.17-1.54-4.33-2.2-6.52a84.26,84.26,0,0,1-3.49-21.07,189.43,189.43,0,0,1,.47-23.46c1.59-19.29-3.68-36.66-15.14-52.2-.54-.75-1.13-1.46-1.66-2.21s-.39-1.23.48-1.53a21.28,21.28,0,0,1,8.2-.8c4.2.2,3.24-.45,6,3.06a69.67,69.67,0,0,1,13.33,47.79c-.39,3.89-.94,7.77-1.48,11.64a107.74,107.74,0,0,0-.66,13.79,178.93,178.93,0,0,0,4.59,40.4c.3,1.33.56,2.66.87,4.14-1.35.11-2.1-.65-2.92-1.16-6.84-4.27-13.82-8.3-21-11.91a149.79,149.79,0,0,0-28.23-11.08A99,99,0,0,0,577.65,503a78.32,78.32,0,0,1-26.39-7.64c-16-8.18-25.27-21.32-28.63-38.81a67.78,67.78,0,0,1-.92-13.42,7.86,7.86,0,0,1,1.44-4.51,31.59,31.59,0,0,1,5.83-6.33c.26-.21.63-.37.93-.07a.86.86,0,0,1,.23.58c.05,1.15,0,2.3.08,3.45a76,76,0,0,0,3.86,22.37c5.83,17,17.52,27.74,34.76,32.55a64.55,64.55,0,0,0,10.84,2.05,85.06,85.06,0,0,1,26.79,7.57A135.17,135.17,0,0,1,630.11,515c1.12.81,2.29,1.55,3.43,2.31.24.17.52.45.78.14S634.38,516.86,634.1,516.65Z" transform="translate(-0.75 -2.88)"/><path class="cls-1" d="M498.68,465.74c-.27-.25-.6-.43-.75-.71-4.33-8.49-10.27-15.81-16.57-22.88-5.59-6.28-11-12.67-16.3-19.23a98.21,98.21,0,0,1-19.94-43.86,77.26,77.26,0,0,1-1.25-9.58c0-.57,0-1.15,0-1.72a1.09,1.09,0,0,1,1-1.15c.69-.07,1.38-.09,2.07-.1,3.22,0,6.45,0,9.67,0,2,0,2.19.19,2.17,2.2a71.21,71.21,0,0,0,2.64,19.09,73.55,73.55,0,0,0,7.75,18c3.61,6.16,7.69,12,11.75,17.89,3.74,5.39,7.48,10.78,10.68,16.52a56.87,56.87,0,0,1,5.86,14.34c.37,1.55.26,3.21,1.19,4.84a4.34,4.34,0,0,0,.92-2.46,46.35,46.35,0,0,1,5.16-14.57,130.61,130.61,0,0,1,8.16-13.21c4.23-6.18,8.49-12.33,12.64-18.55,1.78-2.68,3.39-5.49,4.93-8.32a70.77,70.77,0,0,0,8.14-26.9,66.34,66.34,0,0,0,.47-7.58c0-.81.37-1.33,1.22-1.33q6.21,0,12.43,0a1,1,0,0,1,1.06,1.11,55.89,55.89,0,0,1-.29,6.21,99.1,99.1,0,0,1-20.76,49c-5.68,7.11-11.63,14-17.66,20.8A117.5,117.5,0,0,0,501,462.76,7.25,7.25,0,0,1,498.68,465.74Z" transform="translate(-0.75 -2.88)"/><path class="cls-1" d="M289.9,291a13.17,13.17,0,0,0-1.56,4.44q-5.56,21.38-11,42.77c-.82,3.21-1,2.74-3.72,2.77-1.84,0-3.68,0-5.52,0-.91,0-1.18-.43-.95-1.35.88-3.46,1.78-6.91,2.67-10.36q7.91-30.39,15.82-60.77c.12-.45.26-.88.39-1.32.56-1.92,1-2.25,2.87-2a1.47,1.47,0,0,1,1.34.91c.3.75.6,1.5.89,2.25q9.62,24.21,19.24,48.42c.34.85.74,1.68,1.16,2.49.05.1.55.12.6,0a12.1,12.1,0,0,0,.93-1.83q4.22-10.59,8.4-21.17l11.07-27.91c.25-.64.48-1.3.76-1.92a2.64,2.64,0,0,1,3.49-1.09,1.52,1.52,0,0,1,.58.79c.23.64.41,1.32.58,2Q347,303,356,337.88c.75,2.88,1.41,3.17-2.53,3.11-1.49,0-3,0-4.49,0-1.92,0-2-.12-2.55-2.07-1.22-4.67-2.39-9.36-3.6-14q-4.1-15.87-8.21-31.73c-.14-.54-.11-1.15-.71-1.53s-.66.41-.85.74a10.29,10.29,0,0,0-.57,1.26q-4.49,10.83-9,21.68l-9.39,22.63c-.31.74-.58,1.51-.95,2.22a1.64,1.64,0,0,1-2.82,0,19.67,19.67,0,0,1-1-2.21q-8.9-21.54-17.8-43.06C291.14,293.75,290.61,292.61,289.9,291Z" transform="translate(-0.75 -2.88)"/><path class="cls-1" d="M885.79,291.19a5,5,0,0,0-1,2.51q-5.55,21.56-11.11,43.11c-.25,1-.5,2-.79,3-.17.58-.51,1.09-1.17,1.1-2.65,0-5.3,0-7.94,0a.74.74,0,0,1-.72-.95c.62-2.46,1.22-4.91,1.85-7.36q8.29-31.9,16.6-63.79c.15-.55.32-1.1.48-1.66.54-1.92,1-2.24,2.87-2a1.44,1.44,0,0,1,1.33.92c.28.75.6,1.5.89,2.24q9.62,24.23,19.25,48.43c.4,1,.51,2.28,1.74,3,2.42-6.08,4.8-12.06,7.17-18q6.62-16.69,13.22-33.37c.26-.64.49-1.3.78-1.92a2.68,2.68,0,0,1,3.49-1.09,1.71,1.71,0,0,1,.57.81,15.61,15.61,0,0,1,.52,1.64l18.39,70.81c0,.11.08.22.1.33.45,1.83.32,2-1.51,2.07q-3.1.06-6.22,0c-1.45,0-1.53-.07-1.91-1.47-1.1-4.11-2.16-8.23-3.23-12.35q-4.36-16.87-8.73-33.75c-.16-.63-.39-1.25-.6-1.91-1.25.29-1.27,1.39-1.58,2.15-3.78,9-7.5,18.06-11.24,27.1L910.14,338a21.73,21.73,0,0,1-1,2.2,1.63,1.63,0,0,1-2.82,0c-.52-1-.92-2.11-1.36-3.17q-8.76-21.21-17.52-42.43A10.35,10.35,0,0,0,885.79,291.19Z" transform="translate(-0.75 -2.88)"/><path class="cls-1" d="M480.15,95.57c1.27-3.44,2.47-6.67,3.65-9.91q7.27-19.93,14.53-39.88a16.5,16.5,0,0,0,.58-1.62,1.77,1.77,0,0,1,2-1.46,1.94,1.94,0,0,1,2.15,1.3c2.12,5.35,4.27,10.68,6.41,16q6.42,16,12.85,32c.39,1,.8,1.9,1.21,2.87.88-.48.94-1.31,1.16-2Q531.86,69.08,539,45.29c.24-.77.48-1.53.73-2.3a1.25,1.25,0,0,1,1.29-.92h8.15c.52.86.07,1.48-.13,2.1q-11.26,35.72-22.54,71.41c-.14.44-.33.86-.43,1.31a1.56,1.56,0,0,1-1.71,1.34,1.68,1.68,0,0,1-1.75-1.34c-.26-.76-.58-1.51-.87-2.26q-9.28-23.41-18.59-46.82a12.5,12.5,0,0,0-1.71-3.69c-1.15.74-1.2,2-1.57,3q-6.66,18.32-13.23,36.67-2.28,6.33-4.58,12.66c-.2.54-.39,1.08-.61,1.61-.33.77-1,.85-1.74.82a1.31,1.31,0,0,1-1.32-.88c-.26-.77-.54-1.52-.81-2.28L453.41,47.09a7.71,7.71,0,0,1-.84-3.45,67.41,67.41,0,0,1,8.53-.21,1.31,1.31,0,0,1,1.24,1c.31.86.58,1.74.87,2.62q7.64,22.73,15.3,45.45A5,5,0,0,0,480.15,95.57Z" transform="translate(-0.75 -2.88)"/><path class="cls-1" d="M410.6,59.19c16.66.6,28.68,8.52,35.39,23.69,6.39,14.46,4.77,28.4-5.21,40.86-6.78,8.46-16,13-26.66,14.44-18.77,2.59-37.59-9-42.85-30.36-4.94-20,6-39.51,25.73-46.34A38.57,38.57,0,0,1,410.6,59.19Zm-.82,70.8c8.48.18,16.4-3.93,20.78-7.73a26.82,26.82,0,0,0,8.88-14.82,29,29,0,0,0,.26-12c-1.55-8-4.91-15.06-11-20.61A26.65,26.65,0,0,0,413,67.66a30.83,30.83,0,0,0-22.3,6.54c-7.48,5.77-11.42,13.4-11.14,23a36.58,36.58,0,0,0,8.71,22.76A26.69,26.69,0,0,0,409.78,130Z" transform="translate(-0.75 -2.88)"/><path class="cls-1" d="M256.66,303.27c.27,16-9.55,31.47-25.64,36.87-14.17,4.75-27.57,3-39.4-6.5-8.73-7-13.19-16.38-14-27.5a39.87,39.87,0,0,1,2.45-17.63c4.38-11.17,12.18-18.86,23.56-22.69a40.38,40.38,0,0,1,34.28,3.38C250.51,276.42,257,290.46,256.66,303.27Zm-9.8-.77a28.12,28.12,0,0,0-.77-7.35c-2.53-10.76-8.66-18.39-19.36-21.9a30.28,30.28,0,0,0-15-.95c-10.63,1.95-18.36,7.71-22.17,18a36,36,0,0,0-.23,24.69c3.17,9.32,9.68,15.17,19,18a31,31,0,0,0,15.37.59,27.07,27.07,0,0,0,18.45-12.77A33.15,33.15,0,0,0,246.86,302.5Z" transform="translate(-0.75 -2.88)"/><path class="cls-1" d="M645.23,132,624,157.51a84.29,84.29,0,0,1-8.11-6.57c.76-1,1.36-1.81,2-2.6L661.8,95.46c.52-.62,1-1.24,1.56-1.85.84-.94,1.12-1,2-.29,5.84,4.86,11.74,9.64,17.46,14.63a29.07,29.07,0,0,1,9.55,15.27,19.2,19.2,0,0,1-20.3,23.54,34.1,34.1,0,0,1-9.36-2.17c-.9.68-.82,1.66-.93,2.51-.79,6.51-1.53,13-2.3,19.53q-1,8.75-2.11,17.47c0,.18-.23.33-.43.6a7.22,7.22,0,0,1-2.73-1.95c-1.87-1.67-4.1-2.95-5.63-5,.23-2.4.41-4.8.69-7.2,1.17-9.93,2.34-19.87,3.6-29.8a3.36,3.36,0,0,0-1.32-3.57C649.44,135.58,647.45,133.85,645.23,132Zm37.95-6.78a11.77,11.77,0,0,0-1.6-5.74,20.53,20.53,0,0,0-4.56-5.58c-2.95-2.56-6-5-9-7.53a1.07,1.07,0,0,0-1.74.21c-1.4,1.68-2.8,3.35-4.19,5-3.53,4.24-7.06,8.47-10.56,12.73-.89,1.07-.87,1.3.24,2.24,2.81,2.37,5.63,4.72,8.5,7a20.64,20.64,0,0,0,6,3.39A12.76,12.76,0,0,0,672,138C678.44,137.28,683.47,130.54,683.18,125.25Z" transform="translate(-0.75 -2.88)"/><path class="cls-1" d="M146.88,306.38c1,2.56,2.57,4.68,3.9,6.95s2.73,4.53,4.1,6.8l4.11,6.8c1.37,2.26,2.75,4.52,4.1,6.79s2.81,4.41,3.88,6.59a1,1,0,0,1-1,.66c-2.53,0-5.07,0-7.6,0a2.51,2.51,0,0,1-2.5-1.46c-.54-1-1.18-2-1.77-3l-15.54-25.72c-.47-.79-1-1.56-1.44-2.35a1.79,1.79,0,0,0-1.69-1l-7.26,0c-.71,0-1,.5-1,1.13,0,.91,0,1.84,0,2.76V337c0,.93,0,1.85,0,2.77A1,1,0,0,1,126,340.9c-2.53.05-5.07.06-7.6,0a1.2,1.2,0,0,1-1.24-1.34c0-.8,0-1.61,0-2.42V267.74c0-2.63,0-2.66,2.69-2.67q8.82,0,17.62,0A32.58,32.58,0,0,1,148,266.62a25.17,25.17,0,0,1,5.89,2.83,19.93,19.93,0,0,1,7.24,25c-2.13,4.73-5.81,7.94-10.37,10.21C149.49,305.25,148.22,305.78,146.88,306.38Zm-19.79-20h0c0,3.68,0,7.37,0,11.05,0,1.76.1,1.86,1.69,1.87q5.35,0,10.7-.05a16.34,16.34,0,0,0,6.68-1.55,11,11,0,0,0,6.16-7c2.44-8-1.56-15-9.72-16.77a10.88,10.88,0,0,0-2-.28c-4-.06-8.05-.11-12.08-.12-1.11,0-1.36.28-1.37,1.5C127.07,278.74,127.09,282.54,127.09,286.34Z" transform="translate(-0.75 -2.88)"/><path class="cls-1" d="M830.34,306.47l20.41,33.82c-.53.81-1.14.68-1.7.69-2.07,0-4.14-.07-6.21,0a3.48,3.48,0,0,1-3.62-2c-2-3.61-4.24-7.11-6.38-10.66-3.75-6.2-7.53-12.39-11.22-18.63-.9-1.52-1.82-2.53-3.78-2.23-2.24.33-4.56-.47-6.78.44-.62,2.14-.25,4.33-.27,6.49,0,7.6,0,15.2,0,22.79,0,.92,0,1.84-.07,2.76a.89.89,0,0,1-.89.87c-2.65,0-5.29.06-7.94,0-.68,0-1-.55-1-1.18,0-.81,0-1.62,0-2.42q0-34.2,0-68.38c0-4.26-.34-3.81,3.95-3.83,5.53,0,11.06,0,16.58,0a31.49,31.49,0,0,1,10.2,1.5,27,27,0,0,1,7,3.59c9.88,7,10.36,22.26,2.07,30.05a26.14,26.14,0,0,1-7.13,4.8Zm-19.56-20.18h0c0,3.8,0,7.6,0,11.4,0,1.25.25,1.56,1.29,1.56,4,0,8.06,0,12.09-.12a14.3,14.3,0,0,0,6-1.59,10.69,10.69,0,0,0,6-7.2,15.8,15.8,0,0,0-.05-8.19,10.71,10.71,0,0,0-5.81-6.94,14.72,14.72,0,0,0-6.29-1.66c-3.91-.08-7.83-.1-11.74-.1-1.15,0-1.42.29-1.43,1.44C810.77,278.69,810.78,282.49,810.78,286.29Z" transform="translate(-0.75 -2.88)"/><path class="cls-1" d="M535.06,340.51c-2,.8-3.84.45-5.65.46-4.65,0-4.12.44-4.13-4q0-13.81,0-27.63c0-.92,0-1.84,0-2.76,0-1.07-.35-1.35-1.5-1.42-.46,0-.92,0-1.38,0H492.32a16.47,16.47,0,0,0-1.72.05,1.05,1.05,0,0,0-1.06,1.11c0,.92,0,1.84,0,2.76q0,14,0,28c0,.92,0,1.84,0,2.76a1.07,1.07,0,0,1-1.08,1.1,8.89,8.89,0,0,1-1,.06c-2.4-.11-4.82.3-7.2-.29-1-2.31-.43-4.73-.44-7.09q-.06-32.28,0-64.57c0-4.35-.48-4,3.82-3.9,1.9,0,3.87-.48,5.72.42.57,1.8.23,3.64.25,5.46,0,7.36,0,14.73,0,22.1,0,.92,0,1.84.08,2.75a.92.92,0,0,0,.89.88,12.4,12.4,0,0,0,1.72.1q15.19,0,30.39,0a13.94,13.94,0,0,0,1.72-.1.94.94,0,0,0,.89-.89c.06-.91.08-1.83.08-2.75q0-12.09,0-24.18c0-.92,0-1.84,0-2.76a1,1,0,0,1,1.12-1c2.42,0,4.83,0,7.25,0,1.08,0,1.3.33,1.36,1.53,0,.69,0,1.38,0,2.07v71.78Z" transform="translate(-0.75 -2.88)"/><path class="cls-1" d="M609.53,107.6l-13.32-5-14.83-5.67c-.86-.32-1.72-.63-2.6-.93a1.06,1.06,0,0,0-1.4.63c-.25.52-.44,1.07-.64,1.6q-3.68,9.69-7.34,19.36c-.25.65-.48,1.3-.69,2a.92.92,0,0,0,.55,1.13c.83.39,1.71.68,2.57,1l26.76,10.21c.75.29,1.51.55,2.24.89a.9.9,0,0,1,.52,1.14c-.74,2.05-1.5,4.1-2.33,6.12a.86.86,0,0,1-1.15.46c-.43-.18-.88-.28-1.31-.44l-38.69-14.77c-.43-.16-.88-.29-1.29-.49a1,1,0,0,1-.52-1.43c.26-.64.49-1.29.74-1.93Q569.13,89,581.49,56.58c1.35-3.56,1-3.22,4.33-2q18.24,6.9,36.45,13.87c.43.16.85.34,1.28.52,1.66.69,1.74.84,1.12,2.57-.51,1.4-1.06,2.79-1.62,4.18-.67,1.66-.71,1.68-2.53,1l-26.46-10L592.13,66c-2.94-1.09-2.59-1.32-3.79,1.82C586.19,73.35,584.09,79,582,84.55c-.28.75-.54,1.51-.81,2.27a.85.85,0,0,0,.47,1.14c.82.4,1.67.74,2.53,1.07l25.48,9.7a17.3,17.3,0,0,1,2.21,1,1,1,0,0,1,.36.86C611.39,102.8,610.51,105,609.53,107.6Z" transform="translate(-0.75 -2.88)"/><path class="cls-1" d="M783.44,341c-2.85,0-5.49,0-8.13,0a1.8,1.8,0,0,1-1.78-1.33q-1.8-4.31-3.62-8.59c-.62-1.48-1.28-3-1.9-4.44a1.61,1.61,0,0,0-1.61-1.06H734.27c-.46,0-.92,0-1.38,0a1.73,1.73,0,0,0-1.89,1.15c-.32.74-.64,1.48-1,2.22-1.48,3.5-3,7-4.41,10.5a2.23,2.23,0,0,1-2.36,1.58c-2.3-.05-4.6,0-6.9-.05-.69,0-1-.52-.72-1.19,1.16-2.75,2.35-5.49,3.54-8.24l27.48-63.32c.23-.53.45-1.07.69-1.58.67-1.38,1.23-1.68,2.72-1.49a1.48,1.48,0,0,1,1.32.94c.26.64.55,1.26.83,1.9q15.12,34.82,30.23,69.65A6.6,6.6,0,0,1,783.44,341Zm-20-24.08c-.85-3.14-12.46-30.33-13.94-32.64-.17.15-.42.27-.5.45q-6.75,15.84-13.45,31.67c0,.09,0,.22,0,.33s.07.22.17.54h26.43A1.46,1.46,0,0,0,763.46,316.89Z" transform="translate(-0.75 -2.88)"/><path class="cls-1" d="M557.76,303.3V269.45c0-.93,0-1.85,0-2.77.05-1.35.22-1.53,1.66-1.56,1.61,0,3.23,0,4.84,0h33.86c3.09,0,3.14,0,3.11,2.95-.08,6.23,1,5.32-5.2,5.35-8.17,0-16.35,0-24.53,0-.58,0-1.15,0-1.73,0-2.17.05-2.2.06-2.21,2.44,0,4.49,0,9,0,13.47,0,2.3,0,4.61,0,6.91,0,1.19.28,1.45,1.38,1.51.91,0,1.84,0,2.76,0h24.53c.92,0,1.84,0,2.76.08a.9.9,0,0,1,.88.88,5.36,5.36,0,0,1,.06.69c-.08,2.05.24,4.12-.22,6.17-1.94,1-4,.44-6,.47-7.37.08-14.75,0-22.12,0-.92,0-1.84,0-2.76,0s-1.21.51-1.23,1.32c0,.46,0,.92,0,1.38q0,10.55,0,21.08a16.48,16.48,0,0,0,.06,1.72.93.93,0,0,0,.89.88c.91.07,1.83.1,2.75.1H597.2c.92,0,1.84,0,2.76,0,1.29.06,1.59.32,1.56,1.71-.18,8,1.51,6.57-6.29,6.63-10.94.09-21.88,0-32.83,0-.92,0-1.84,0-2.76,0-1.64-.05-1.82-.22-1.87-1.74,0-.8,0-1.61,0-2.42Z" transform="translate(-0.75 -2.88)"/><path class="cls-1" d="M479,205.64a6.17,6.17,0,0,1-2.91-1.41Q452,188,428,171.81c-.75-.5-2-.84-2-1.71,0-1.23,1.48-1.22,2.36-1.61A171.08,171.08,0,0,1,470.92,156c2.05-.31,4.09-.65,6.14-1,1.76-.26,1.91-.14,1.95,1.76,0,1.38,0,2.77,0,4.15v44.7Z" transform="translate(-0.75 -2.88)"/><path class="cls-1" d="M573.39,170.19c-.21,1.05-.94,1.3-1.49,1.67q-24.31,16.41-48.67,32.8a12.59,12.59,0,0,1-1.78,1,.53.53,0,0,1-.76-.41,16.25,16.25,0,0,1-.08-1.72q0-22.78,0-45.58a10.87,10.87,0,0,1,.13-2.06,1,1,0,0,1,.71-.59,16.73,16.73,0,0,1,2.74.16A177.92,177.92,0,0,1,573.39,170.19Z" transform="translate(-0.75 -2.88)"/><path class="cls-1" d="M713.85,183.61a63.63,63.63,0,0,0,1.28,9.93,56.35,56.35,0,0,1,1.06,11.66,32.5,32.5,0,0,1-.62,5.48,20,20,0,0,1-23,15.56,25,25,0,0,1-16.15-9.72,33.35,33.35,0,0,1-7.3-23.83,4.08,4.08,0,0,1,2.37-3.82c2.36-1.17,4.63-2.54,6.94-3.83.42-.24.81-.39,1.22,0a1,1,0,0,1,.19,1c-.48,2.13-1,4.24-1.42,6.39-1.05,6.12-.29,11.92,3.28,17.17a20.43,20.43,0,0,0,4.4,4.83c8.13,6.32,19.23.64,20.36-8.3a39.77,39.77,0,0,0-.36-12A63.85,63.85,0,0,1,705,180a28.44,28.44,0,0,1,1.62-8.43c2.45-6.75,9.69-12.3,17.86-11.41a20,20,0,0,1,9.81,3.95c6.08,4.49,9.72,10.62,11.65,17.84a25.63,25.63,0,0,1,.68,7.2,2.61,2.61,0,0,1-1.14,2.34c-2.18,1.51-4.3,3.08-6.47,4.6-.34.23-.73.63-1.22.27a1.44,1.44,0,0,1-.49-1.54c.22-1.13.45-2.26.64-3.39a21.73,21.73,0,0,0-3.19-15.53,15.41,15.41,0,0,0-5.91-5.67,9.55,9.55,0,0,0-11.22,1.2,11.4,11.4,0,0,0-3.46,7.33C713.92,180.39,713.93,182,713.85,183.61Z" transform="translate(-0.75 -2.88)"/><path class="cls-1" d="M708.15,265.34c.09.18.18.28.18.38.1,9.49,1.71,7.54-6.85,7.68-8.17.13-16.35,0-24.52,0-.92,0-1.84,0-2.76.05a1,1,0,0,0-1,1.11c0,.35,0,.69,0,1v22.45c0,.46,0,.92.05,1.37a1,1,0,0,0,1.13,1l2.76,0h26.25q1.38,0,2.76,0a1,1,0,0,1,1.09,1.06,9.09,9.09,0,0,1,0,1.38c-.13,1.81.34,3.66-.29,5.44-1.75.85-3.61.36-5.4.38-8.18.06-16.35,0-24.53,0-.92,0-1.84,0-2.76,0a1,1,0,0,0-1,1.09c0,.92,0,1.84,0,2.76q0,12.43,0,24.87c0,3.41.31,3.42-3.36,3.39-1.73,0-3.46,0-5.18,0a1.19,1.19,0,0,1-1.34-1.24c0-.92,0-1.84,0-2.76q0-34,0-68c0-4.24-.44-3.85,3.92-3.85q18.66,0,37.31,0A10.12,10.12,0,0,1,708.15,265.34Z" transform="translate(-0.75 -2.88)"/><path class="cls-1" d="M290.64,197.06c.85-1.2,1.53-2.13,2.17-3.07q7.44-11,14.86-22.06c.52-.76,1-1.54,1.58-2.27a.87.87,0,0,1,1.2-.31,42.3,42.3,0,0,1,6,4.27c-.64,1-1.21,2-1.84,2.93q-7.51,11.17-15,22.35c-.52.76-1,1.53-1.47,2.33a.71.71,0,0,0,.19.93c.73.55,1.48,1.09,2.24,1.6,6.88,4.63,13.76,9.24,20.62,13.89A7.82,7.82,0,0,1,324,220a18,18,0,0,1-2.23,3.63c-.75,1.16-1.55,2.29-2.33,3.43a1,1,0,0,1-1.46.33c-.59-.36-1.16-.75-1.73-1.13l-57.59-38.78a8,8,0,0,1-2.57-2.13c2.5-4.13,5.38-8.11,8.1-12.21s5.52-8.22,8.29-12.33,5.54-8.18,8.37-12.36c1.53.24,2.5,1.29,3.63,2s2.07,1.42,3,2c.32,1.15-.43,1.69-.85,2.31q-8.28,12.34-16.59,24.64c-1.93,2.88-1.89,2.5.9,4.39q8.73,5.91,17.48,11.77Z" transform="translate(-0.75 -2.88)"/><path class="cls-1" d="M51.09,302.85V269c0-.93,0-1.85,0-2.77a1,1,0,0,1,1-1.09c.69,0,1.38,0,2.07,0H92.93c.58,0,1.16,0,1.73,0,1.23.06,1.48.26,1.5,1.37q.06,2.76,0,5.52c0,1.07-.35,1.35-1.51,1.4-.92,0-1.84,0-2.76,0H63.56c-2.62,0-2.64,0-2.65,2.69q0,10.88,0,21.75c0,.58,0,1.15.08,1.73a.87.87,0,0,0,.9.84c.92.05,1.84.07,2.76.07h26.6c.92,0,1.84,0,2.76.06a.86.86,0,0,1,.89.85c0,2.18,0,4.36,0,6.54,0,.52-.43.79-.94.81-.92,0-1.84.05-2.76.05H64.58c-.92,0-1.84,0-2.75.08a.86.86,0,0,0-.85.9c0,.91-.07,1.84-.07,2.75q0,12.27,0,24.53c0,.92,0,1.84,0,2.76a1,1,0,0,1-1.11,1.05c-1.5,0-3,.08-4.49.07-4.77,0-4.16.49-4.17-4.28Q51.07,319.77,51.09,302.85Z" transform="translate(-0.75 -2.88)"/><path class="cls-1" d="M390.52,406.52c-5.22-.37-10.74-.78-16.25-1.15-12.41-.86-24.82-1.65-37.25-.41-.57.06-1.15.1-1.72.12s-.75-.6-.54-1a16.25,16.25,0,0,1,2.93-3.82c2.89-3.13,5.82-6.22,8.67-9.38a54,54,0,0,0,5.77-7.75c2.82-4.54,5-9.34,5.48-14.75.15-1.56.43-1.79,1.93-1.81q3.81-.06,7.6,0c1.64,0,1.87.4,1.66,2.18a34.73,34.73,0,0,1-4.31,12.66,64,64,0,0,1-8.95,12.24,22.72,22.72,0,0,0-1.54,1.84.54.54,0,0,0,.33.81,7.53,7.53,0,0,0,1.71.19l35.22,1a45.92,45.92,0,0,0,15.59-2.54,107.32,107.32,0,0,0,23.25-11.25c2.35-1.46,4.65-3,7-4.45.35-.22.77-.64,1.19-.15s.13.89,0,1.29a24.26,24.26,0,0,1-4.25,6.27,60.22,60.22,0,0,1-14.91,12.19A57.34,57.34,0,0,1,399.42,406,60.54,60.54,0,0,1,390.52,406.52Z" transform="translate(-0.75 -2.88)"/><path class="cls-1" d="M558.76,378.57a10.48,10.48,0,0,1,3.64,1.95,143.52,143.52,0,0,0,20.78,11.57,69.52,69.52,0,0,0,15.44,4.82,33.74,33.74,0,0,0,6.87.52q18.12-.45,36.24-1a5.11,5.11,0,0,0,1.36-.15c.29-.1.64-.41.39-.79a13.9,13.9,0,0,0-1.29-1.58,66.9,66.9,0,0,1-8.33-11,36.73,36.73,0,0,1-5.17-13.8c-.06-.45-.11-.91-.13-1.37a1,1,0,0,1,1-1.15c3-.06,6-.06,9-.05a1.17,1.17,0,0,1,1.17,1.05,12.51,12.51,0,0,1,.25,1.36,32.79,32.79,0,0,0,4.81,13.18,71.92,71.92,0,0,0,9.5,12.26c1.8,1.94,3.69,3.8,5.46,5.76a37.57,37.57,0,0,1,2.78,3.51c.52.74.15,1.39-.72,1.35-2-.09-3.92-.18-5.86-.37a79,79,0,0,0-9-.34q-11.91.14-23.79,1c-4.24.33-8.49.58-12.73.95-14.51,1.26-27.2-3.31-38.63-11.95a50,50,0,0,1-10.67-10.73A11.51,11.51,0,0,1,558.76,378.57Z" transform="translate(-0.75 -2.88)"/><path class="cls-1" d="M354.42,168.77l2.58-2.12,24.29-20.5c.53-.44,1.07-.88,1.59-1.34a1.09,1.09,0,0,1,1.77.07L389,150.1c-1.81,2.06-33.61,29-37,31.38a1.21,1.21,0,0,1-.34-.08.88.88,0,0,1-.29-.18l-47.3-55.92a10.9,10.9,0,0,1-.79-1.13,2.59,2.59,0,0,1-.08-.61c2.05-1.75,4.22-3.62,6.42-5.44.52-.43,1.05-.27,1.49.25.81,1,1.66,1.92,2.47,2.89Q332.85,144,352,166.65C352.68,167.42,353.15,168.42,354.42,168.77Z" transform="translate(-0.75 -2.88)"/><path class="cls-1" d="M440.33,307.1v30c0,.93,0,1.85,0,2.77a.9.9,0,0,1-.83.94c-2.64.05-5.29.06-7.93,0a.88.88,0,0,1-.89-.87c-.06-1-.06-2.07-.06-3.11q0-29.54,0-59.07c0-4.94.66-4.4-4.39-4.42-4.49,0-9,0-13.47,0-2,0-2.08-.1-2.11-2.2,0-1.62,0-3.23,0-4.84,0-.86.48-1.22,1.29-1.25l1.73,0h43.53c3.37,0,3.16,0,3.16,3.25,0,1.27,0,2.53,0,3.8A1.17,1.17,0,0,1,459,273.4c-.81,0-1.62,0-2.42,0H443.77c-3.7,0-3.43-.21-3.44,3.27v30.4Z" transform="translate(-0.75 -2.88)"/><path class="cls-1" d="M763.4,366.09c-2.41.17-4.81.38-7.22.51-12,.61-23.3,4-34.17,9-4.39,2-8.79,4-13.22,5.95a70.41,70.41,0,0,1-20.53,5.71,58.79,58.79,0,0,1-10.69.21,89.78,89.78,0,0,1-21.93-4.41c-.49-.16-1.15-.11-1.52-.86.61,0,1.13,0,1.65,0a56.2,56.2,0,0,0,19.14-1.91c6.14-1.54,12.15-3.52,18.17-5.47A266.18,266.18,0,0,1,720,367.22,124.43,124.43,0,0,1,747,364.35,76.18,76.18,0,0,1,763.4,366.09Z" transform="translate(-0.75 -2.88)"/><path class="cls-1" d="M343.31,382.34c0,.37-.41.35-.71.45a87.54,87.54,0,0,1-26,4.8,63,63,0,0,1-25.87-5.2c-5.09-2.14-10.1-4.46-15.13-6.73a104.12,104.12,0,0,0-23.2-7.7,119.94,119.94,0,0,0-14.74-1.63,30.74,30.74,0,0,1-3.7-.39,105.56,105.56,0,0,1,23.35-1.44c13.91.74,27.27,4,40.47,8.2,7.35,2.32,14.69,4.66,22.08,6.86a60.7,60.7,0,0,0,15.59,2.77C338.05,382.4,340.68,382.34,343.31,382.34Z" transform="translate(-0.75 -2.88)"/><path class="cls-1" d="M428,210H370.57c-.31-.67.09-1,.39-1.29a170.52,170.52,0,0,1,22.4-20c1.55-1.16,1.59-1.16,3-.21q15.22,10.16,30.42,20.34A12.18,12.18,0,0,1,428,210Z" transform="translate(-0.75 -2.88)"/><path class="cls-1" d="M570,210.15a4.27,4.27,0,0,1,2-2q14.21-9.52,28.42-19c.57-.39,1.15-.76,1.74-1.12a1.22,1.22,0,0,1,1.3.06,8.58,8.58,0,0,1,.84.61A169.75,169.75,0,0,1,626.94,209a6.51,6.51,0,0,1,.39.58c-.45,1-1.38.59-2.09.59q-16.23,0-32.47,0H570Z" transform="translate(-0.75 -2.88)"/><path class="cls-1" d="M524.59,209.83c0-.12-.08-.3,0-.33.83-.62,1.66-1.24,2.52-1.81l43.82-29.4c2.29-1.53,4.61-3,6.87-4.61a2.14,2.14,0,0,1,2.54-.13c2.59,1.48,5.22,2.9,7.81,4.39,1.21.7,1.17,1.11-.05,2-.56.4-1.14.78-1.71,1.16-13.57,9.08-27.16,18.13-40.68,27.28a9.83,9.83,0,0,1-6.08,1.86c-4.36-.13-8.74,0-13.11-.05C525.85,210.17,525.12,210.44,524.59,209.83Z" transform="translate(-0.75 -2.88)"/><path class="cls-1" d="M456.59,209.76c-.68.79-1.42.54-2.07.54-4.95,0-9.9-.11-14.85-.1a6,6,0,0,1-3.52-1.14q-17.5-11.75-35-23.42a10,10,0,0,1-.84-.61c-.39-.35-.52-.84,0-1.15,2.79-1.83,5.61-3.62,8.42-5.42a1.22,1.22,0,0,1,1.31,0c.59.34,1.16.74,1.74,1.12l42.79,28.59C455.21,208.67,455.88,209.23,456.59,209.76Z" transform="translate(-0.75 -2.88)"/></svg>