<svg id="Layer_1" data-name="Layer 1" xmlns="http://www.w3.org/2000/svg" xmlns:xlink="http://www.w3.org/1999/xlink" viewBox="0 0 869.18 870.67"><defs><style>.cls-1{fill:#c34cff;}.cls-2{fill:#ff4cd9;}.cls-3{fill:#ff6eff;}.cls-4{fill:#aa6dff;}.cls-5{fill:#d656ff;}.cls-6{fill:#f651ff;}.cls-7{fill:url(#radial-gradient);}.cls-8{fill:#3a3839;}</style><radialGradient id="radial-gradient" cx="435.15" cy="429.55" r="325.27" gradientUnits="userSpaceOnUse"><stop offset="0" stop-color="#020202"/><stop offset="0.83" stop-opacity="0"/></radialGradient></defs><path class="cls-1" d="M500,483.84c-24.52,0-47.76-22.12-65.42-62.29-17.95-40.82-27.83-95.14-27.83-153s9.88-112.16,27.83-153c17.66-40.17,40.9-62.29,65.42-62.29s47.76,22.12,65.42,62.29c18,40.82,27.83,95.14,27.83,153s-9.88,112.15-27.83,153C547.76,461.72,524.52,483.84,500,483.84Z" transform="translate(-64.85 -50.82)"/><path d="M500,55.82c11.59,0,23,5.29,33.8,15.71s20.8,25.68,29.33,45.08c17.81,40.51,27.62,94.48,27.62,152s-9.81,111.46-27.62,152c-8.53,19.4-18.4,34.56-29.33,45.07s-22.21,15.72-33.8,15.72-23-5.29-33.8-15.72S445.4,440,436.87,420.55c-17.81-40.51-27.62-94.48-27.62-152s9.81-111.46,27.62-152c8.53-19.4,18.4-34.56,29.33-45.08S488.41,55.82,500,55.82m0-5c-52.88,0-95.75,97.49-95.75,217.76S447.12,486.34,500,486.34s95.75-97.49,95.75-217.76S552.88,50.82,500,50.82Z" transform="translate(-64.85 -50.82)"/><path class="cls-2" d="M242.74,817.53c-14.78,0-26.65-4-35.29-11.93C189.37,789,187.19,757,201.3,715.48c14.35-42.22,43.76-89,82.83-131.59,29.76-32.47,62.65-59.81,95.1-79.06,31.52-18.7,60.5-28.58,83.8-28.58,14.77,0,26.64,4,35.28,11.93,18.08,16.57,20.27,48.58,6.15,90.12-14.34,42.22-43.76,89-82.83,131.59C391.87,742.37,359,769.71,326.53,789,295,807.65,266,817.53,242.74,817.53Z" transform="translate(-64.85 -50.82)"/><path d="M463,478.75c14.12,0,25.43,3.8,33.59,11.28,8.55,7.83,13.36,19.41,14.31,34.42s-2,33-8.84,53c-14.23,41.9-43.46,88.32-82.3,130.7-29.59,32.3-62.28,59.48-94.53,78.61C294.13,805.27,265.59,815,242.74,815c-14.13,0-25.43-3.79-33.6-11.27-8.54-7.83-13.35-19.42-14.3-34.43s2-33,8.83-53C217.91,674.38,247.14,628,286,585.58c29.6-32.3,62.29-59.48,94.54-78.6,31.13-18.47,59.66-28.23,82.52-28.23m0-5c-47.7,0-118.92,41-180.74,108.45C201,670.87,166.78,771.72,205.77,807.44c9.32,8.54,22,12.59,37,12.59,47.7,0,118.91-41,180.74-108.45C504.73,622.91,539,522.07,500,486.34c-9.32-8.54-22-12.59-37-12.59Z" transform="translate(-64.85 -50.82)"/><path class="cls-3" d="M682.55,562.14c-100.48,0-176.21-32-180.06-76-2.14-24.43,17.88-49.5,56.35-70.59,39.1-21.44,92.36-36,150-41.06,14.25-1.25,28.55-1.88,42.51-1.88,100.48,0,176.2,32,180.06,76C933.51,473,913.5,498.1,875,519.2c-39.1,21.43-92.36,36-150,41.06-14.25,1.24-28.55,1.88-42.5,1.88Z" transform="translate(-64.85 -50.82)"/><path d="M751.32,375.09c48.21,0,92.74,7.6,125.37,21.4,31.89,13.48,50.42,32.07,52.19,52.33,1,11.54-3.26,23.33-12.71,35s-23.76,23-42.35,33.15c-38.8,21.27-91.71,35.75-149,40.76-14.18,1.24-28.41,1.87-42.29,1.87-48.22,0-92.75-7.6-125.38-21.4-31.88-13.49-50.42-32.07-52.19-52.33-1-11.55,3.27-23.34,12.71-35.05s23.77-22.95,42.35-33.14C598.84,396.44,651.75,382,709,377c14.18-1.24,28.41-1.87,42.3-1.87m0-5c-13.88,0-28.16.61-42.73,1.89C588.78,382.46,495.39,433.66,500,486.34c4.05,46.27,82.37,78.3,182.55,78.3,13.87,0,28.15-.62,42.73-1.89,119.81-10.48,213.19-61.69,208.59-114.37-4-46.27-82.37-78.29-182.55-78.29Z" transform="translate(-64.85 -50.82)"/><path class="cls-3" d="M448.3,504.09c-48.33,0-116.47-29.25-177.83-76.33-45.88-35.21-83-76.12-104.42-115.21-21.11-38.46-24.52-70.36-9.59-89.82,9.67-12.6,26.86-19.27,49.72-19.27,48.32,0,116.46,29.25,177.83,76.34C429.88,315,467,355.91,488.42,395c21.12,38.47,24.53,70.36,9.6,89.82-9.68,12.61-26.87,19.27-49.71,19.27Z" transform="translate(-64.85 -50.82)"/><path d="M206.18,206c47.8,0,115.36,29,176.3,75.82,45.61,35,82.46,75.63,103.75,114.43,10.2,18.57,16.23,35.63,17.91,50.7S503.09,474.1,496,483.3c-9.18,12-25.68,18.29-47.73,18.29-47.8,0-115.36-29-176.31-75.82-45.61-35-82.45-75.63-103.75-114.42-10.19-18.58-16.22-35.64-17.91-50.71s1.06-27.19,8.11-36.38c9.19-12,25.69-18.3,47.74-18.3m0-5c-23,0-41.17,6.52-51.7,20.25-32.2,42,19.06,135.32,114.47,208.53C333.14,479,401,506.59,448.3,506.59c23,0,41.17-6.52,51.7-20.25C532.19,444.39,480.94,351,385.53,277.81c-64.2-49.25-132-76.85-179.35-76.85Z" transform="translate(-64.85 -50.82)"/><path class="cls-4" d="M568.12,913.4C519.05,913.4,465.4,827.12,446,717c-10-57-9.74-112.17.85-155.49,10.42-42.62,29.45-68.44,53.6-72.7a40.74,40.74,0,0,1,7.07-.61c49.08,0,102.73,86.27,122.15,196.41,10,56.95,9.74,112.17-.85,155.48-10.42,42.63-29.46,68.45-53.61,72.71a41.54,41.54,0,0,1-7.06.61Z" transform="translate(-64.85 -50.82)"/><path d="M507.51,490.69c11.14,0,22.83,4.74,34.73,14.08s23.66,23.05,34.68,40.53c22.94,36.38,40.79,86,50.27,139.74,10,56.61,9.69,111.46-.82,154.45-5,20.59-12.11,37.23-21,49.49s-19.15,19.33-30.56,21.34a37.77,37.77,0,0,1-6.64.58c-11.14,0-22.83-4.74-34.73-14.08s-23.66-23.05-34.68-40.53c-22.94-36.39-40.79-86-50.27-139.74-10-56.61-9.69-111.47.82-154.45,5-20.59,12.11-37.24,21.05-49.49s19.14-19.33,30.56-21.35a38.65,38.65,0,0,1,6.64-.57m0-5a43,43,0,0,0-7.51.65c-52.08,9.18-77.37,112.64-56.48,231.08C463.4,830.2,518,915.9,568.12,915.9a43,43,0,0,0,7.51-.65c52.08-9.19,77.36-112.64,56.48-231.08-19.89-112.78-74.47-198.48-124.6-198.48Z" transform="translate(-64.85 -50.82)"/><path class="cls-5" d="M526.16,491c-9.46,0-17.81-2.27-24.82-6.73-20.68-13.17-28.39-44.31-21.7-87.68,6.79-44.07,27.65-95.2,58.72-144,51.82-81.35,121.52-138.17,169.49-138.17,9.46,0,17.81,2.26,24.81,6.72,20.69,13.18,28.39,44.32,21.71,87.68-6.8,44.07-27.65,95.21-58.72,144C643.82,434.14,574.13,491,526.17,491Z" transform="translate(-64.85 -50.82)"/><path d="M707.85,116.91c9,0,16.87,2.13,23.47,6.33,9.77,6.23,16.53,16.8,20.07,31.42s3.74,32.83.51,53.77c-6.75,43.74-27.47,94.53-58.36,143-25.76,40.44-55.81,75-86.92,100.05-29.65,23.84-58.22,37-80.46,37-9,0-16.88-2.13-23.47-6.34-9.78-6.22-16.53-16.79-20.07-31.41s-3.74-32.83-.51-53.78c6.74-43.73,27.47-94.52,58.36-143,25.75-40.43,55.81-75,86.92-100,29.64-23.84,58.22-37,80.46-37m0-5c-47.79,0-117.94,55.09-171.6,139.33C471.63,352.67,455.4,457.93,500,486.34c7.56,4.82,16.4,7.12,26.16,7.12,47.79,0,117.94-55.1,171.6-139.33C762.38,252.7,778.61,147.44,734,119c-7.57-4.81-16.4-7.11-26.16-7.11Z" transform="translate(-64.85 -50.82)"/><path class="cls-3" d="M201.53,648.52c-32.11,0-60.17-4.57-81.14-13.23-21.17-8.75-34.54-21.5-38.66-36.87-6.34-23.69,9-51.86,43.24-79.31,34.78-27.91,84.7-51.51,140.55-66.48,38.46-10.3,77.28-15.75,112.26-15.75,32.12,0,60.18,4.58,81.14,13.24,21.18,8.74,34.55,21.49,38.66,36.87,6.35,23.69-9,51.85-43.23,79.31-34.78,27.9-84.7,51.51-140.56,66.47-38.45,10.31-77.27,15.75-112.25,15.75Z" transform="translate(-64.85 -50.82)"/><path d="M377.78,439.38c31.8,0,59.53,4.51,80.19,13.05,20.43,8.44,33.29,20.61,37.2,35.2,3,11.2.84,23.55-6.43,36.72s-19.42,26.74-35.95,40c-34.52,27.69-84.11,51.13-139.64,66C274.9,640.61,236.3,646,201.53,646c-31.79,0-59.52-4.51-80.18-13-20.43-8.44-33.29-20.62-37.2-35.21-3-11.2-.84-23.55,6.43-36.72s19.42-26.73,36-40c34.52-27.69,84.11-51.14,139.64-66,38.25-10.24,76.84-15.66,111.61-15.66m0-5c-34.14,0-72.87,5.11-112.9,15.83C148.71,481.34,65.63,548,79.32,599.06c9,33.48,57.28,52,122.21,52,34.15,0,72.88-5.1,112.91-15.83C430.61,604.06,513.69,537.42,500,486.34c-9-33.48-57.28-52-122.22-52Z" transform="translate(-64.85 -50.82)"/><path class="cls-2" d="M812.27,716c-46.41,0-105.52-16.92-162.17-46.41-51.3-26.71-94.92-60.56-122.84-95.33-27.47-34.21-36.37-65-25-86.78,10-19.17,35.48-29.73,71.82-29.73,46.41,0,105.52,16.91,162.17,46.41,51.3,26.7,94.92,60.55,122.84,95.32,27.48,34.21,36.37,65,25.05,86.79-10,19.17-35.49,29.73-71.82,29.73Z" transform="translate(-64.85 -50.82)"/><path d="M574,460.27c46,0,104.71,16.81,161,46.13,51,26.54,94.34,60.16,122,94.67,13.27,16.52,22.17,32.27,26.45,46.82s3.68,27-1.67,37.24c-9.53,18.31-34.25,28.38-69.61,28.38-46,0-104.71-16.81-161-46.12-51-26.55-94.33-60.17-122-94.67-13.27-16.53-22.16-32.28-26.44-46.83s-3.69-27,1.67-37.24c9.52-18.3,34.24-28.38,69.6-28.38m0-5c-36.11,0-63.17,10.2-74,31.07-24.42,46.91,42.27,130,148.94,185.48,59.21,30.82,118.3,46.69,163.33,46.69,36.11,0,63.18-10.19,74-31.07,24.42-46.9-42.26-130-148.94-185.48-59.21-30.82-118.3-46.69-163.33-46.69Z" transform="translate(-64.85 -50.82)"/><path class="cls-2" d="M484.73,486.48c-22.91,0-50.26-17.11-77-48.17-27.31-31.74-52.12-76-69.83-124.7-19.78-54.34-29.08-108.78-26.17-153.27,2.86-43.79,17.12-72.52,40.17-80.91A42,42,0,0,1,366.31,77c22.92,0,50.26,17.11,77,48.17,27.32,31.73,52.12,76,69.84,124.7,19.78,54.34,29.07,108.77,26.16,153.27-2.85,43.78-17.12,72.51-40.16,80.9a42,42,0,0,1-14.42,2.49Z" transform="translate(-64.85 -50.82)"/><path d="M366.31,79.45c22.18,0,48.85,16.8,75.1,47.3,27.13,31.51,51.77,75.52,69.39,123.92,19.66,54,28.9,108.1,26,152.25-1.38,21.15-5.47,38.78-12.14,52.39s-15.5,22.37-26.39,26.33A39.48,39.48,0,0,1,484.73,484c-22.17,0-48.85-16.8-75.1-47.3-27.13-31.52-51.77-75.53-69.39-123.93-19.66-54-28.9-108.09-26-152.25,1.38-21.15,5.47-38.77,12.14-52.39s15.5-22.36,26.39-26.33a39.52,39.52,0,0,1,13.56-2.33m0-5A44.5,44.5,0,0,0,351,77.08c-49.69,18.09-56.63,124.37-15.49,237.38C372.64,416.38,436.17,489,484.73,489A44.23,44.23,0,0,0,500,486.34C549.69,468.25,556.63,362,515.5,249,478.4,147,414.87,74.45,366.31,74.45Z" transform="translate(-64.85 -50.82)"/><path class="cls-3" d="M350.64,889.56a42.34,42.34,0,0,1-16.35-3.16c-22.66-9.38-35.66-38.71-36.6-82.58-1-44.58,10.7-98.55,32.82-152,19.52-47.12,45.8-89.81,74-120.22,27.57-29.74,55.34-46.12,78.19-46.12A42.52,42.52,0,0,1,499,488.65c22.66,9.39,35.66,38.71,36.6,82.58,1,44.58-10.69,98.56-32.82,152C483.3,770.33,457,813,428.83,843.44c-27.57,29.74-55.34,46.12-78.19,46.12Z" transform="translate(-64.85 -50.82)"/><path d="M482.69,488a40,40,0,0,1,15.4,3c10.7,4.44,19.19,13.67,25.21,27.46s9.39,31.68,9.85,52.86c1,44.25-10.64,97.86-32.64,151C481.1,769.11,455,811.54,427,841.74c-27.09,29.22-54.21,45.32-76.36,45.32a39.93,39.93,0,0,1-15.39-3c-10.71-4.43-19.2-13.67-25.22-27.45s-9.39-31.69-9.84-52.87c-1-44.24,10.63-97.86,32.63-151,19.41-46.85,45.52-89.29,73.51-119.48,27.1-29.23,54.22-45.32,76.36-45.32m0-5c-48.31,0-113.59,69.16-154.49,167.88-46,111.12-43.72,217.59,5.13,237.83a44.82,44.82,0,0,0,17.31,3.35c48.32,0,113.59-69.16,154.49-167.89,46-111.11,43.73-217.59-5.13-237.83A44.92,44.92,0,0,0,482.69,483Z" transform="translate(-64.85 -50.82)"/><path class="cls-2" d="M581.5,518.3c-41.17,0-69.31-11.73-79.23-33-10.37-22.22-.14-52.63,28.8-85.61,29.41-33.51,74.47-65.43,126.88-89.87,53.8-25.09,110.4-39.48,155.27-39.48,41.16,0,69.3,11.73,79.23,33,10.37,22.22.14,52.63-28.8,85.61-29.41,33.52-74.47,65.44-126.88,89.87C683,503.91,626.38,518.3,581.51,518.3Z" transform="translate(-64.85 -50.82)"/><path d="M813.22,272.82c40.14,0,67.47,11.21,77,31.57,4.89,10.51,4.91,23.05,0,37.28s-14.49,29.7-28.46,45.63c-29.19,33.26-74,65-126.06,89.26A457.11,457.11,0,0,1,653.65,506c-26,6.51-50.32,9.81-72.15,9.81-40.14,0-67.47-11.21-77-31.57-4.9-10.51-4.91-23.05,0-37.28S519,417.25,533,401.32c29.19-33.26,73.95-65,126.06-89.26a457.79,457.79,0,0,1,82-29.43c26.05-6.51,50.33-9.81,72.16-9.81m0-5c-43.82,0-99.73,13.32-156.33,39.71C547.89,358.36,477.65,438.41,500,486.34c10.74,23,40.94,34.46,81.5,34.46,43.81,0,99.72-13.32,156.32-39.71,109-50.83,179.25-130.88,156.9-178.81-10.75-23-40.94-34.46-81.5-34.46Z" transform="translate(-64.85 -50.82)"/><path class="cls-2" d="M389.79,530.74c-38.65,0-82.06-7.25-125.51-20.95-55.15-17.39-104-43.15-137.53-72.54-33-28.92-47.11-57.73-39.73-81.12C95.93,327.86,136.24,311,194.84,311c38.66,0,82.06,7.24,125.52,20.94,55.15,17.39,104,43.16,137.52,72.55,33,28.92,47.11,57.73,39.74,81.12C488.7,513.86,448.4,530.74,389.79,530.74Z" transform="translate(-64.85 -50.82)"/><path d="M194.84,313.48c38.41,0,81.55,7.2,124.77,20.83,54.82,17.29,103.35,42.87,136.62,72,15.94,14,27.44,27.94,34.18,41.52s8.31,25.91,4.82,37c-8.57,27.17-48,43.4-105.44,43.4-38.4,0-81.55-7.21-124.76-20.83-54.83-17.29-103.35-42.87-136.63-72-15.94-14-27.43-27.94-34.17-41.52s-8.31-25.92-4.83-37c8.57-27.18,48-43.4,105.44-43.4m0-5c-57.79,0-100.56,16.29-110.21,46.9C68.73,405.81,148.82,476,263.52,512.18c45.1,14.21,88.84,21.06,126.27,21.06,57.79,0,100.56-16.29,110.21-46.9,15.9-50.43-64.19-120.63-178.89-156.8-45.09-14.22-88.84-21.06-126.27-21.06Z" transform="translate(-64.85 -50.82)"/><path class="cls-6" d="M694,867c-22.79,0-51.64-14.11-81.24-39.72-30.77-26.64-60-63.21-84.59-105.77-28.91-50.08-47.51-102.07-52.38-146.39-4.79-43.62,4.27-74.39,25.51-86.65a44.46,44.46,0,0,1,22.56-5.7c22.79,0,51.64,14.11,81.24,39.73,30.77,26.64,60,63.21,84.59,105.76,28.91,50.08,47.51,102.07,52.38,146.4,4.79,43.61-4.27,74.39-25.51,86.65A44.46,44.46,0,0,1,694,867Z" transform="translate(-64.85 -50.82)"/><path d="M523.81,485.31c22.19,0,50.46,13.89,79.6,39.12C634,550.89,663,587.24,687.47,629.55,716.22,679.34,734.71,731,739.54,775c2.31,21.07,1.35,39.13-2.86,53.7s-11.38,24.72-21.42,30.51A42,42,0,0,1,694,864.54c-22.19,0-50.46-13.89-79.6-39.11C583.79,799,554.72,762.62,530.29,720.3c-28.75-49.78-47.24-101.43-52.06-145.42-2.32-21.06-1.36-39.13,2.85-53.7s11.38-24.71,21.42-30.51a42.1,42.1,0,0,1,21.31-5.36m0-5a46.87,46.87,0,0,0-23.81,6c-45.8,26.44-34.17,132.31,26,236.46,50.86,88.09,120.13,146.74,168,146.74a46.87,46.87,0,0,0,23.81-6c45.8-26.44,34.18-132.3-26-236.46-50.86-88.09-120.13-146.74-168-146.74Z" transform="translate(-64.85 -50.82)"/><path class="cls-6" d="M509.41,484.86a41.06,41.06,0,0,1-8.87-1c-23.94-5.31-41.83-31.93-50.38-75-8.69-43.74-6.58-98.91,5.93-155.37,11.72-52.84,31.53-101.49,55.79-137,23.79-34.8,49.71-54,73-54a40.9,40.9,0,0,1,8.86,1c23.95,5.31,41.84,31.94,50.39,75,8.69,43.74,6.58,98.92-5.94,155.37-11.71,52.85-31.52,101.49-55.78,137-23.8,34.81-49.72,54-73,54Z" transform="translate(-64.85 -50.82)"/><path d="M584.86,65.12a38.55,38.55,0,0,1,8.32.9c11.32,2.51,21.28,10.14,29.6,22.66s14.75,29.57,18.88,50.36c8.62,43.4,6.51,98.22-5.93,154.34-11.65,52.54-31.32,100.88-55.41,136.1-23.31,34.1-48.5,52.88-70.91,52.88a38.58,38.58,0,0,1-8.33-.9c-11.31-2.51-21.27-10.13-29.6-22.66s-14.74-29.57-18.87-50.36c-8.62-43.4-6.52-98.21,5.92-154.34,11.65-52.54,31.33-100.87,55.41-136.1,23.32-34.1,48.5-52.88,70.92-52.88m0-5c-49.65,0-106.74,82.53-131.21,192.9-26,117.41-5.28,221.88,46.35,233.32a43.19,43.19,0,0,0,9.41,1c49.64,0,106.73-82.52,131.2-192.89,26-117.42,5.28-221.88-46.35-233.33a43.65,43.65,0,0,0-9.4-1Z" transform="translate(-64.85 -50.82)"/><path class="cls-6" d="M199.61,756.25c-25.67,0-44.46-7.45-54.32-21.54-14.07-20.09-9.27-51.8,13.5-89.31,23.14-38.12,62-77.37,109.34-110.54,61.37-43,127-68.62,175.5-68.62,25.67,0,44.46,7.44,54.32,21.53,14.07,20.09,9.27,51.81-13.5,89.32-23.14,38.11-62,77.37-109.34,110.54-61.37,43-127,68.62-175.49,68.62Z" transform="translate(-64.85 -50.82)"/><path d="M443.63,468.74c24.82,0,42.9,7.08,52.27,20.47,6.65,9.49,8.84,21.84,6.52,36.7s-9.11,31.77-20.11,49.88c-23,37.83-61.55,76.82-108.64,109.79-30.41,21.3-62.79,38.83-93.65,50.7-29.71,11.43-57.52,17.47-80.41,17.47-24.82,0-42.9-7.08-52.27-20.47-6.65-9.49-8.84-21.84-6.52-36.71s9.11-31.76,20.11-49.87c23-37.83,61.55-76.82,108.64-109.79,30.41-21.3,62.79-38.83,93.65-50.7,29.71-11.43,57.52-17.47,80.41-17.47m0-5c-47,0-113.22,24.46-176.93,69.07-98.52,69-153.79,160-123.46,203.34,10.72,15.3,30.69,22.6,56.37,22.6,47,0,113.22-24.46,176.93-69.07,98.52-69,153.79-160,123.46-203.34-10.72-15.3-30.69-22.6-56.37-22.6Z" transform="translate(-64.85 -50.82)"/><path class="cls-5" d="M766,611.39a481.3,481.3,0,0,1-62.22-4.17c-57.34-7.55-109.91-24.44-148-47.57-37.51-22.75-56.41-48.67-53.21-73,2.62-19.91,19.76-37,49.57-49.48,29.39-12.28,69.8-19.05,113.8-19.05a479.65,479.65,0,0,1,62.22,4.17c57.33,7.55,109.91,24.44,148,47.56,37.52,22.76,56.42,48.68,53.22,73-2.62,19.91-19.76,37-49.57,49.48-29.39,12.28-69.8,19-113.79,19Z" transform="translate(-64.85 -50.82)"/><path d="M665.85,420.64a476.34,476.34,0,0,1,61.89,4.15c57,7.5,109.23,24.27,147.07,47.22,18.12,11,31.86,22.75,40.86,35s12.68,24.08,11.17,35.57c-5.14,39.06-71.3,66.35-160.89,66.35a476.61,476.61,0,0,1-61.9-4.15c-57-7.51-109.22-24.28-147.06-47.22-18.12-11-31.87-22.75-40.86-35S503.44,498.48,505,487c5.14-39.06,71.3-66.35,160.89-66.35m0-5c-90.55,0-160.2,27.75-165.85,70.7C493.1,538.77,584.16,594,703.4,609.7A482.15,482.15,0,0,0,766,613.89c90.55,0,160.19-27.75,165.85-70.7,6.9-52.43-84.17-107.66-203.4-123.36a482.26,482.26,0,0,0-62.55-4.19Z" transform="translate(-64.85 -50.82)"/><path class="cls-5" d="M466,494.88c-48.19,0-119.48-46.38-177.41-115.41-37.17-44.3-64.52-92.27-77-135.08-12.29-42.12-8.71-74,10.08-89.76,8.27-6.94,19.16-10.46,32.39-10.46,48.19,0,119.48,46.38,177.41,115.42,37.17,44.29,64.52,92.27,77,135.07,12.29,42.12,8.71,74-10.08,89.77-8.26,6.93-19.16,10.45-32.39,10.45Z" transform="translate(-64.85 -50.82)"/><path d="M254.05,146.67c47.49,0,118,46,175.49,114.52,37,44,64.13,91.69,76.53,134.17,5.93,20.34,8.12,38.3,6.51,53.38s-6.92,26.32-15.79,33.77c-7.81,6.55-18.17,9.87-30.79,9.87-47.49,0-118-46-175.49-114.52-37-44-64.13-91.69-76.53-134.17-5.93-20.34-8.12-38.3-6.51-53.38s6.92-26.32,15.8-33.77c7.8-6.55,18.16-9.87,30.78-9.87m0-5c-13.48,0-25.07,3.55-34,11-40.51,34-10.68,136.23,66.63,228.36C347,452.9,418.29,497.38,466,497.38c13.48,0,25.07-3.55,34-11,40.51-34,10.68-136.23-66.63-228.36C373.1,186.15,301.76,141.67,254.05,141.67Z" transform="translate(-64.85 -50.82)"/><path class="cls-5" d="M482.88,919c-.59,0-1.18,0-1.77,0-24.5-1.07-46.74-24.18-62.64-65.08-16.15-41.56-23.65-96.27-21.13-154,5.08-116.36,50.29-211,100.79-211,.58,0,1.17,0,1.76,0,24.5,1.07,46.75,24.18,62.64,65.08,16.15,41.56,23.65,96.27,21.13,154-5.08,116.37-50.28,211-100.77,211Z" transform="translate(-64.85 -50.82)"/><path d="M498.13,491.3c.55,0,1.1,0,1.65,0,11.58.5,22.71,6.28,33.09,17.17s19.65,26.56,27.33,46.32c16,41.24,23.47,95.59,21,153-2.47,56.71-14.39,109.72-33.56,149.28-9.19,19-19.52,33.77-30.72,44s-22.56,15.34-34,15.34c-.55,0-1.11,0-1.66,0-11.58-.5-22.71-6.28-33.09-17.17S428.48,872.72,420.8,853c-16-41.24-23.47-95.59-21-153,2.47-56.71,14.39-109.72,33.56-149.28,9.19-18.95,19.53-33.77,30.73-44s22.55-15.34,34-15.34m0-5c-52.07,0-98.1,94.68-103.29,213.42C389.6,819.87,428.17,919.14,481,921.45c.63,0,1.26,0,1.88,0,52.07,0,98.1-94.68,103.28-213.42,5.25-120.15-33.33-219.42-86.16-221.73-.62,0-1.25,0-1.87,0Z" transform="translate(-64.85 -50.82)"/><path class="cls-2" d="M540.18,498.11c-16.51,0-29.43-4.55-38.41-13.54-17.34-17.34-18.13-49.41-2.22-90.3,16.18-41.55,47.6-87,88.49-127.85,60.64-60.63,131.19-99.81,179.74-99.81,16.51,0,29.43,4.55,38.41,13.54,17.34,17.34,18.13,49.41,2.22,90.3-16.18,41.55-47.6,87-88.49,127.85-60.64,60.63-131.18,99.81-179.73,99.81Z" transform="translate(-64.85 -50.82)"/><path d="M767.78,169.11c15.82,0,28.15,4.31,36.65,12.81,8.19,8.19,12.49,20,12.79,35s-3.46,32.86-11.14,52.61c-16.05,41.24-47.28,86.34-87.93,127C688,426.68,655,451.94,622.78,469.58c-31.12,17-59.68,26-82.6,26-15.82,0-28.15-4.31-36.64-12.8-8.2-8.2-12.5-20-12.79-35s3.45-32.86,11.13-52.61c16-41.24,47.28-86.34,87.93-127C620,238,652.94,212.78,685.18,195.14c31.12-17,59.68-26,82.6-26m0-5c-47.67,0-118.49,37.53-181.5,100.54C501.23,349.7,462.61,449,500,486.34c9.68,9.68,23.52,14.27,40.18,14.27,47.67,0,118.49-37.53,181.51-100.54,85-85.05,123.66-184.3,86.27-221.69-9.68-9.68-23.52-14.27-40.18-14.27Z" transform="translate(-64.85 -50.82)"/><path class="cls-1" d="M264.84,589.48c-53.18,0-102.71-8.71-139.47-24.52-36.39-15.65-57-36.86-58-59.73-1.07-24.5,20-48.68,59.37-68.07,40-19.71,93.85-32,151.62-34.48,7.22-.32,14.51-.48,21.67-.48,53.18,0,102.71,8.71,139.48,24.52,36.38,15.65,57,36.86,58,59.73,1.07,24.5-20,48.68-59.37,68.07-40,19.71-93.84,32-151.62,34.48-7.22.32-14.51.48-21.65.48Z" transform="translate(-64.85 -50.82)"/><path d="M300.05,404.7c52.85,0,102,8.64,138.49,24.32C474,444.26,494.05,464.7,495,486.56c.51,11.58-4.28,23.17-14.22,34.46S456,542.91,437,552.28C397.33,571.84,343.84,584,286.4,586.5c-7.18.32-14.44.48-21.56.48-52.84,0-102-8.64-138.49-24.32C90.89,547.42,70.84,527,69.89,505.12c-.51-11.58,4.28-23.17,14.22-34.46s24.75-21.89,43.76-31.26c39.69-19.56,93.18-31.72,150.62-34.22,7.18-.32,14.44-.48,21.56-.48m0-5q-10.77,0-21.78.48C158.12,405.43,62.59,452.51,64.89,505.34c2.17,49.6,89.82,86.64,200,86.64q10.77,0,21.78-.48C406.77,586.25,502.31,539.17,500,486.34c-2.17-49.6-89.81-86.64-199.95-86.64Z" transform="translate(-64.85 -50.82)"/><path class="cls-6" d="M786.14,781.88c-48.74,0-117.43-32.24-179.27-84.13-44.29-37.17-79.56-79.67-99.29-119.65-19.42-39.35-21.43-71.37-5.66-90.15,9.57-11.41,24.9-17.2,45.57-17.2,48.73,0,117.42,32.24,179.26,84.13,44.3,37.17,79.57,79.67,99.3,119.65,19.42,39.35,21.43,71.37,5.66,90.15-9.57,11.41-24.9,17.2-45.56,17.2Z" transform="translate(-64.85 -50.82)"/><path d="M547.49,473.26c23,0,51.37,7.49,82.07,21.68,31.85,14.72,64.9,36.11,95.59,61.86,44,37,79.07,79.16,98.66,118.84,9.37,19,14.65,36.31,15.68,51.44s-2.24,27.12-9.69,36c-9.08,10.81-23.76,16.3-43.66,16.3-23,0-51.37-7.5-82.07-21.69-31.85-14.72-64.9-36.11-95.59-61.86-44-37-79.07-79.16-98.66-118.84-9.37-19-14.65-36.31-15.68-51.44s2.24-27.12,9.69-36c9.08-10.81,23.76-16.29,43.66-16.29m0-5c-20.64,0-37.19,5.81-47.49,18.08-34,40.51,13.14,136,105.27,213.32,64.22,53.89,133.37,84.72,180.87,84.72,20.64,0,37.19-5.82,47.49-18.09,34-40.51-13.14-136-105.27-213.32C664.14,499.08,595,468.26,547.49,468.26Z" transform="translate(-64.85 -50.82)"/><circle class="cls-7" cx="435.15" cy="429.55" r="395.89"/><circle class="cls-8" cx="435.15" cy="429.55" r="148"/></svg>