<?xml version="1.0" encoding="utf-8"?>
<!-- Generator: Adobe Illustrator 25.0.0, SVG Export Plug-In . SVG Version: 6.00 Build 0)  -->
<svg version="1.1" id="Layer_1" xmlns="http://www.w3.org/2000/svg" xmlns:xlink="http://www.w3.org/1999/xlink" x="0px" y="0px"
	 viewBox="0 0 99.7 99.7" style="enable-background:new 0 0 99.7 99.7;" xml:space="preserve">
<style type="text/css">
	.st0{fill:#FFFFFF;}
</style>
<g>
	<path class="st0" d="M49.9,57.5c-1.4,0-2.8-0.6-3.8-1.6L21.5,31.4v41.7h56.7V31.4L53.6,56C52.6,57,51.3,57.5,49.9,57.5z"/>
	<polygon class="st0" points="73.3,26.6 26.4,26.6 49.9,50 	"/>
	<path class="st0" d="M77.8,0h-56C9.8,0,0,9.8,0,21.9v56c0,12.1,9.8,21.9,21.9,21.8h56c12.1,0,21.9-9.8,21.9-21.8v-56
		C99.7,9.8,89.9,0,77.8,0z M85,75.9c0,2.3-1.8,4.1-4.1,4.1H18.7c-2.3,0-4.1-1.8-4.1-4.1V23.8c0-2.3,1.8-4.1,4.1-4.1H81
		c2.3,0,4.1,1.8,4.1,4.1V75.9z"/>
</g>
</svg>
